# xmcd
#
# Track frame offsets: 
#        182
#        20680
#        57677
#        82947
#        116965
#        157622
#        178675
#        204235
#
# Disc length: 3315 seconds
#
# Revision: 3
# Processed by: cddbd v1.5.1PL2 Copyright (c) Steve Scherf et al.
# Submitted via: ExactAudioCopy v0.95b2
#
DISCID=620cf108
DTITLE=Sangit Om - Bamboo Moon
DYEAR=1994
DGENRE=Ambient
TTITLE0=Seven Steps
TTITLE1=Bamboo Dream
TTITLE2=Pans Farewell
TTITLE3=Little Princess
TTITLE4=East Wind
TTITLE5=Liliom
TTITLE6=The Jungle
TTITLE7=Waves
EXTD=
EXTT0=
EXTT1=
EXTT2=
EXTT3=
EXTT4=
EXTT5=
EXTT6=
EXTT7=
PLAYORDER=
